<?xml version="1.0" encoding="iso-8859-1"?>
<!-- Generator: Adobe Illustrator 16.0.0, SVG Export Plug-In . SVG Version: 6.00 Build 0)  -->
<!DOCTYPE svg PUBLIC "-//W3C//DTD SVG 1.1//EN" "http://www.w3.org/Graphics/SVG/1.1/DTD/svg11.dtd">
<svg version="1.1" id="Layer_1" xmlns="http://www.w3.org/2000/svg" xmlns:xlink="http://www.w3.org/1999/xlink" x="0px" y="0px"
	 width="30.353px" height="36.679px" viewBox="0 0 30.353 36.679" style="enable-background:new 0 0 30.353 36.679;"
	 xml:space="preserve">
<g>
	<g>
		<path style="fill:#3f51b5;" d="M6.75,31.324H1.512l2.461-9.457c1.195-4.641,2.238-9.047,3.129-13.219
			c0.211-1.031,0.316-1.675,0.316-1.934c0-0.563-0.258-0.844-0.773-0.844c-0.352,0-0.891,0.241-1.617,0.721
			c-0.727,0.48-2.039,1.67-3.938,3.568L0,8.93c2.249-2.414,4.492-4.224,6.729-5.432c2.237-1.207,3.954-1.811,5.149-1.811
			c0.422,0,0.755,0.1,1.001,0.299c0.246,0.199,0.369,0.452,0.369,0.756c0,0.307-0.154,1.119-0.462,2.438l-1.529,6.325
			c2.371-3.741,5.048-6.94,8.031-9.599C20.721,0.636,21.919,0,22.882,0c0.704,0,1.292,0.229,1.761,0.686
			c0.47,0.457,0.705,0.99,0.705,1.6c0,0.633-0.229,1.172-0.686,1.617c-0.457,0.445-1.598,0.973-3.424,1.582
			c-1.734,0.587-3.145,1.29-4.233,2.11c-1.089,0.821-2.284,2.075-3.583,3.763c-1.301,1.688-2.209,3.159-2.726,4.413
			c-0.517,1.253-1.304,4.165-2.36,8.734L6.75,31.324z"/>
	</g>
	<g>
		<path style="fill:#3f51b5;" d="M16.326,14.284l-1.547-1.195c2.34-2.578,4.477-4.412,6.408-5.502s3.575-1.635,4.933-1.635
			c0.75,0,1.323,0.164,1.721,0.492c0.398,0.329,0.598,0.773,0.598,1.336c0,0.68-0.76,3.563-2.279,8.648
			c-2.478,8.32-3.716,13.336-3.716,15.047c0,0.329,0.082,0.604,0.246,0.826c0.163,0.223,0.339,0.334,0.527,0.334
			c0.75,0,2.671-1.453,5.765-4.359l1.371,1.336c-3.211,3.023-5.555,4.957-7.03,5.801c-1.477,0.844-2.685,1.266-3.621,1.266
			c-0.821,0-1.472-0.258-1.951-0.773c-0.48-0.515-0.721-1.23-0.721-2.145c0-2.93,1.758-10.09,5.273-21.48
			c0.163-0.539,0.246-1.02,0.246-1.441c0-0.469-0.211-0.703-0.633-0.703c-0.47,0-1.002,0.188-1.6,0.563
			C19.719,11.073,18.388,12.269,16.326,14.284z"/>
	</g>
</g>
</svg>
